# xmcd CD database file
#
# Track frame offsets:
#	150
#	11736
#	30266
#	52221
#	60730
#	65064
#	83797
#	110452
#	125682
#	148032
#	163745
#	166136
#
# Disc length: 2425 seconds
#
# Revision: 0
# Processed by: cddbd v1.5.2PL0 Copyright (c) Steve Scherf et al.
# Submitted via: CDex 1.70beta2
#
DISCID=a709770c
DTITLE=清水 信之 - ANYTHING GOES
DYEAR=1982
DGENRE=J-Pop
TTITLE0=ANYTHING GOES
TTITLE1=BEACH DANCE
TTITLE2=ELENE
TTITLE3=COSMIC LULLABY
TTITLE4=HOW ABOUT A LITTLE PRELUDE?
TTITLE5=CHUMP CHANGE BOOGALOO
TTITLE6=FREE TALK SUITE
TTITLE7=OTAKEBI
TTITLE8=I'LL TURN TO STONE
TTITLE9=COLOURED TRAIN
TTITLE10=BEYOND THE COUNTRY
TTITLE11=I'LL BE HOME AGAIN
EXTD=YEAR: 1982
EXTT0=
EXTT1=
EXTT2=
EXTT3=
EXTT4=
EXTT5=
EXTT6=
EXTT7=
EXTT8=
EXTT9=
EXTT10=
EXTT11=
PLAYORDER=
